<svg width="180" height="86" viewBox="0 0 180 86" fill="none" xmlns="http://www.w3.org/2000/svg">
<path d="M28.56 36.2246L28.3138 36.4708L27.5754 37.1108L27.0831 37.6523L26.6892 37.9477L26.5908 38.1446C26.5415 38.2431 26.4431 38.3415 26.3446 38.3908H26.1477L26 38.4892L25.9508 38.7846L25.5569 39.1785L25.2123 39.3754L24.9169 39.72L24.6708 40.0154L24.6215 40.1631L24.08 40.6554L23.9323 40.7046L23.6369 40.8523L23.4892 41.0492L23.0462 41.2954L22.8985 41.4431L22.6523 41.7385L22.5538 42.0831L22.3077 42.28L22.16 42.6246L22.1108 42.6738V42.7231C21.9631 42.8215 21.8646 42.9692 21.7662 43.0677L21.6677 43.1169V43.1662L20.2892 44.7415L20.1415 44.84L19.4523 45.6769L18.96 46.1692L18.8123 46.4646L18.6154 46.6615L18.2215 46.8092L17.9754 47.0062L17.6308 47.6954L16.5969 49.0246L16.2031 49.4185L15.8585 49.7138L15.7108 50.0092L15.4154 50.5015L15.3169 50.7477L15.0215 51.2892L14.6277 51.6338L14.3323 52.0769L14.1846 52.52C13.7415 53.1108 13.3477 53.7508 12.9046 54.3908L12.5108 54.5385L12.4123 54.7354L12.3138 55.2769L11.0831 57.1969L10.5415 57.8862L10.2462 58.4277L9.90154 58.92L9.31077 59.7077L8.86769 60.3477L8.67077 60.7908L8.17846 62.0215L7.44 63.0554L7.24308 63.8923L6.55385 65.2708L6.01231 66.0092L5.47077 67.5354L5.17538 68.2246L4.97846 68.7662L3.6 72.1138L2.76308 73.64L2.32 75.3138L2.12308 75.6585V75.9046L1.72923 77.3815L1.68 77.4308L1.53231 77.5292L1.43385 77.7754L1.33538 77.9231H1.18769L1.04 78.4646L0.990768 78.4154L0.941538 78.4646L1.08923 78.5138L0.990768 79.0062L1.04 79.1538L0.990768 79.2031L0.941538 79.8431L0.892307 79.9908L0.990768 80.3354V80.7785L1.13846 80.8277L1.18769 81.1231L1.23692 81.3692V81.4677L1.33538 81.6646L1.43385 81.8123L1.58154 82.0092L1.92615 82.1569L2.07385 82.1077L2.12308 82.0585L2.27077 82.0092L2.56615 81.4677L3.00923 80.8769L3.10769 80.2862L3.15692 80.1385V79.8923L3.20615 79.7938L3.15692 79.5477V79.2523L3.50154 78.9077L4.14154 77.2831L4.43692 76.0523L6.06154 72.8523C6.84923 71.4246 7.58769 70.1938 8.32615 69.0615L8.52308 68.9138V68.7662L9.55692 67.24L9.85231 66.9938L12.3631 63.6462V63.4492L12.6092 63.0062L12.8062 62.76H13.0031L12.9046 62.6123L13.6431 61.5292L14.0862 60.9385L14.48 60.3969L14.5785 60.2C14.8246 59.9046 15.0215 59.56 15.2185 59.2646L15.3169 59.2154L15.9077 58.3292L16.2523 57.8862L16.7446 57.1969L17.3354 56.2123L17.5815 55.8677L18.2215 54.9323L18.4185 54.5385L18.7138 54.0954L18.7631 53.9969L19.0585 53.5046L20.0431 52.0277L20.3877 51.5846L20.4369 51.4369L20.6338 51.1415L20.88 50.8954L21.2246 50.2062L21.6185 49.6154L21.9138 49.2215L22.16 48.9754L22.4062 48.5323L22.6031 48.1877L22.9477 47.7446L23.0462 47.4L23.1446 47.2523L23.1938 47.1538L24.3262 45.3815L25.2615 43.9046L25.6062 43.7077L25.8031 43.5108L26.0492 43.0185L26.1969 42.5754L27.3292 41L27.3785 40.8523L27.5754 40.5077H27.6738V40.4585L28.1662 39.6708L28.2154 39.72L28.5108 39.8185H28.7569L28.9046 39.8677L29.2 40.0646L29.3477 40.1138H29.3969C29.4954 40.1631 29.5446 40.2123 29.6431 40.2123C30.5292 40.6062 31.5631 40.8523 32.6462 40.9015L32.8923 41L33.0892 41.0492H33.4831L33.8277 40.9508L34.1723 41.0492L34.4677 41H34.5662L35.0585 40.9508L35.4031 40.7538H35.4523L35.8954 40.6554H36.1415L36.2892 40.6062C36.88 40.4585 37.4708 40.36 38.0615 40.1631L38.6031 40.1138L38.9969 39.9662L39.3415 39.9169L39.8831 39.6215C40.6215 39.3754 41.3108 39.08 41.9508 38.7846L42.3938 38.6862L42.9354 38.3908L43.0831 38.2923L43.92 37.8492H44.0185L44.1662 37.7508L45.2 37.4062L46.5292 36.7662L49.9754 33.7631L50.5169 33.2215V33.1723L51.8954 32.4831L52.1415 32.2862L52.4862 30.8585C53.4215 29.5292 53.9631 28.2 53.6677 27.0185L53.9138 26.7231L53.8646 26.3785L53.52 25.9846L53.2738 25.7877H53.0769V25.6892L52.7323 25.3446H52.6831L52.3385 25.2462H52.3877L52.3385 25.1477L52.1415 25.0985L51.7969 24.9508L51.4523 24.9015L51.4031 24.9508L51.3538 24.9015H51.0092V24.8031H50.96V24.8523L50.6646 24.9015V25C49.9262 25 49.1877 25.0985 48.6954 25.2462L46.2831 26.1323L45.8892 26.2308L45.6431 26.3785L43.2308 27.3631H43.1815V27.4123L41.1631 28.2985H41.0646L40.9169 28.3969L39.7354 28.9877L39.5385 28.8892L39.4892 28.84L39.44 29.0369L39.2923 29.1846L37.6185 30.0708L36.88 30.3662L36.4862 30.6123L36.0923 30.8092L35.4031 31.1046L34.8615 31.4L34.5662 31.6462L33.8277 32.2862L32.9908 32.7785L32.4985 33.1723L32.3508 33.4185L31.6123 33.96L32.8431 31.8431L33.2369 31.3508L33.2862 31.0554L33.7785 30.0708L34.1723 29.7754L34.32 29.2338L34.4677 28.6431L34.3692 28.5446C34.3692 28.4954 34.4185 28.4462 34.4185 28.3969C34.4677 28.1015 34.32 27.9538 34.0738 28.0031L33.68 28.1508L33.7292 28.0523L33.6308 28.0031L33.5815 27.9538L33.2369 27.7569H32.7938V27.6585L32.5969 27.7569L32.4 27.9046L32.3015 27.9538L32.2523 28.0031V28.2L32.1538 28.2985L32.0062 28.4954L31.8092 28.6923C31.7108 28.7415 31.6123 28.84 31.5138 28.9385C31.4646 28.9385 31.4646 28.9877 31.4154 28.9877L31.3662 29.0369L31.12 29.1846L30.6769 29.48C30.5292 29.6277 30.3323 30.12 30.3815 30.1692C30.4308 30.2185 30.5292 30.2677 30.6769 30.2185L30.8246 30.0708L31.1692 29.8246V29.8738L31.12 29.9723L31.0215 30.76L30.9723 30.8585V31.4L30.8246 31.8923L30.6277 32.5815L30.3815 33.0738L30.3323 33.4185L30.1354 34.2062L29.7908 34.3538L29.7415 34.6492L29.5446 35.0431L29.2985 35.2892L29.3477 35.7323C29.2492 35.8308 29.1508 35.9292 29.0523 35.9785L28.56 36.2246ZM43.8708 37.2585L43.7231 37.2092L43.4769 37.4062L43.0338 37.5538L42.7877 37.8L41.36 38.44L40.72 38.5877L40.5723 38.7354C39.3908 39.1785 38.16 39.5723 36.9785 39.8185H36.5846L36.1908 39.8677L35.3538 40.1138C34.0738 40.3108 32.7938 40.36 31.6123 40.2123L31.3169 40.0646L30.6769 39.9169L30.1846 39.7692H29.9877L29.6431 39.6708L29.2 39.4738L28.8062 39.2769C28.7077 39.2277 28.6092 39.1292 28.5108 39.0308L28.6092 38.8831L28.8554 38.44L29.1015 38.0462H29.1508L29.3477 37.7508L29.3969 37.6031L29.6923 37.0615L30.0369 36.6677V36.5692L30.1846 36.3231L30.2831 36.1754C30.3323 36.1754 30.3323 36.1262 30.3815 36.0769L30.6277 36.0277L30.8246 35.7815L31.2185 35.5354L31.9077 34.8954L32.2031 34.6L33.3846 33.7631C34.2708 33.0246 33.9262 33.32 34.8615 32.68L35.1569 32.5323L35.4031 32.3846L35.5508 32.1877H35.6L36.7323 31.4492L37.3231 31.2523L37.8646 30.9569L39.0954 30.2185L39.3908 30.0215L39.7846 29.8738L41.0646 28.9877C41.8523 28.5446 42.7385 28.1015 43.6738 27.7077L44.2646 27.56H44.6092L44.9538 27.3631L45.3477 27.0677L46.8738 26.4769L46.9723 26.5262L47.12 26.4277L48.7938 26.0831L48.9908 26.1815L49.1385 26.28L49.5815 26.1815L49.7785 25.9846L49.9262 25.8862L50.2215 25.8369H50.4185L51.1077 26.1323L51.1569 26.1815L51.4031 26.3292L51.5015 26.4277L51.6 26.4769H51.7969L52.0431 26.7723L52.0923 27.1662L52.1908 27.3138L52.2892 27.7077L52.1908 28.0523L52.0431 28.2985L52.1908 28.4954L51.8954 29.3323L51.7477 29.8246L51.6 29.9231V30.2185L51.4031 30.3169L50.4677 32.0892L49.4831 32.9754L48.9415 33.3692V33.5662L48.7938 33.8615L48.4492 34.2062L48.2031 34.2554V34.4031L47.6123 34.9446L47.5138 34.9938L47.0708 35.2892H46.9231L46.7262 35.5354L46.5292 35.4862L45.1015 36.6185L43.8708 37.3077V37.2585ZM24.2277 43.8062L24.0308 44.1508L23.6862 44.7415L23.5385 44.9385L23.44 45.0369L22.9477 45.8246L22.8 45.9723L22.5538 46.6615L22.3569 47.0062L22.2585 47.2031L21.0769 49.0246L20.9785 49.1231L20.9292 49.2708L20.3385 50.2062L19.9938 50.6492L19.5015 51.4369L18.8615 52.0277L18.5169 52.7169L18.4185 52.8154V52.8646L17.9754 53.5046L16.3015 56.0154L15.6615 56.7538L15.5138 57.2462L15.0215 57.64V57.8369L14.4308 58.7231L14.3323 59.0677L12.8062 61.2338C12.4123 61.8738 11.9692 62.4646 11.5262 63.1046L11.4769 63.1538L9.55692 66.1077H9.50769V66.1569C9.01538 66.8462 8.57231 67.5354 8.12923 68.2246L7.48923 68.5692V68.9138L7.63692 68.9631C6.50462 70.6862 5.42154 72.4585 4.38769 74.1815C4.19077 74.5754 3.84615 74.92 3.50154 75.3138L3.45231 75.0677L4.48615 72.3108L4.63385 72.1138V71.9169L5.02769 70.7846L6.65231 67.2892L6.84923 67.0431L7.24308 66.3046L7.98154 64.8277L8.27692 64.0892L8.32615 63.9908C8.47385 63.6954 8.62154 63.3508 8.81846 63.0554L8.96615 62.8092L9.40923 62.0215L9.60615 61.6277L9.90154 61.0862L10.2462 60.5938L11.0831 59.2154L11.7723 58.28L12.0677 57.5415L12.3138 57.2462L12.4615 56.8523L13.1015 55.8677L13.5938 55.3754L14.0369 54.4892C14.1354 54.3908 14.1846 54.2923 14.2338 54.1938L14.48 53.9969L14.5785 53.8L14.6769 53.5538L14.9723 53.1108C15.12 52.9631 15.2677 52.7662 15.3662 52.5692L15.6123 52.2738C15.8585 51.88 16.1538 51.5354 16.4492 51.1415L16.8923 50.6985L17.1877 50.2062L17.5815 49.8123L17.68 49.6154L17.8769 49.3692L18.32 49.0246L18.4185 48.8769L19.2554 47.6954L19.9938 46.6615L20.2892 46.3169L20.5846 46.12L20.7815 45.7262C21.0769 45.3815 21.3231 45.0369 21.6185 44.7415L22.1108 44.4462L22.3077 43.9538L22.9477 43.2646L23.2431 42.9692L23.7354 42.5754L24.3262 41.9846L24.5723 41.5908L25.3108 40.8523L25.8523 40.4092L26.2462 39.9169C26.5908 39.5723 26.9354 39.2769 27.2308 38.9323L27.4769 39.1292L26.7385 40.3108H26.5415L26.4431 40.5569L26.1969 40.9015L26.1477 41.1477L25.8523 41.2462L25.7538 41.6892L25.5569 42.1323L25.36 42.3785L25.0646 42.7231L25.0154 42.92L24.8185 43.2154L24.2277 43.8062ZM27.92 38.44L27.8708 38.3908L27.9692 38.3415C27.9692 38.3415 27.9692 38.3908 27.92 38.44ZM55.0673 36.9631L55.3135 36.7169L55.6088 36.2246L55.9535 35.4862L56.5442 34.5508L56.8396 34.0585L56.9381 33.8615L57.2335 33.5169L57.6765 32.7785L57.8735 32.4338L57.9719 32.1385L58.2673 31.6954C58.2673 31.6954 58.3165 31.7446 58.3165 31.6954C58.6119 31.4 58.8581 31.0062 59.1042 30.6615H59.1535L59.3012 30.3169L59.4981 30.0708L59.9412 29.5785L60.2365 29.5292L60.7781 28.84L60.7288 28.7415C61.2704 28.1015 61.7627 27.4123 61.7627 26.8215L61.8119 26.6738L61.7627 26.6246C61.7135 26.3785 61.5165 26.1323 61.1227 25.9846L61.3688 25.8862L61.4181 25.8369L61.3196 25.7385H61.1719L60.975 25.6892L60.7781 25.8369V25.9354L60.5812 26.0338L60.335 25.9846L59.9904 25.9354H59.7442L59.5473 26.1323H59.4488L59.3504 26.1815V26.4277L59.1042 26.4769L59.2027 26.5262L59.1535 26.6738V26.8708L59.0058 27.1169L58.7596 26.9692L58.5627 27.2646L58.6119 27.4615H58.7104L58.6119 27.5108H58.7104L58.5135 27.56L58.415 27.6585V27.8062L58.6612 27.9046L58.7104 27.8554L58.8088 28.0031L58.7596 28.1015L58.6119 28.3477L58.5627 28.4954V28.5938L58.4642 28.6923C58.4642 28.9385 58.6612 29.1846 58.9073 28.9385L59.1042 28.6923L59.1535 28.7415L59.0058 28.9385L59.055 28.84L58.9073 28.9877L59.1042 29.0862V29.2338L59.055 29.48L58.9073 29.8246L58.6119 30.1692L58.4642 30.0708L58.1688 30.12L57.8735 30.6123V30.76L57.5288 31.2523L57.4304 31.3508L57.3812 31.4985L57.135 31.9415L56.9381 32.2369L56.4458 33.0738L55.6088 34.1077V34.3046L54.9688 35.2892L54.8212 35.3877L54.2796 36.0769L54.1812 36.3723L53.8365 36.6677L53.5412 37.4062L53.295 37.8985L53.1473 37.9477L52.8027 38.44L52.2119 39.2769L52.0642 39.3754H51.9658L51.5227 39.72V39.8185L51.375 40.0646L51.1781 40.2123V40.3108L51.1288 40.4092L50.7842 40.9015L50.5873 41.4923L50.4396 41.8369L50.4888 42.0338L50.5873 41.9354L50.4396 42.5262L50.3412 42.6246V42.8215C50.2919 43.0185 50.3412 43.1662 50.4396 43.3138V43.3631L50.6858 43.7077L51.1288 43.8062L51.6212 43.4615L52.4088 42.8708L52.7042 42.5754L52.8027 42.3292L52.8519 42.2308L52.9504 41.9354L53.1965 41.4923L53.3935 41.2462L53.6396 40.8523L54.4765 40.0154L54.9688 39.5723L55.1658 39.3262L55.3627 39.1785L55.5596 38.8338L56.0519 38.3415L56.2488 38.1938L56.495 37.9477L56.9381 37.4554L57.3319 37.1108L57.3812 37.0123L57.7258 36.6677L58.1196 36.4215L58.3165 36.3231L58.9073 35.7815L59.5473 35.0923L59.8919 34.8462L60.1873 34.4031L62.3042 32.6308L63.7319 31.6954L64.0273 31.3508L64.7658 30.8585L65.2088 30.5138L65.455 30.3662L66.3904 29.8738L66.6858 29.5785L67.4242 29.1354L69.3935 28.1015L69.6396 27.8554L69.935 27.7077C70.2304 27.56 71.0181 27.1662 71.9535 26.7723L73.9227 26.3785L74.2181 26.3292L74.7596 26.0831L75.1535 26.1323L75.3996 26.0831L76.0888 25.7877L76.8273 25.6892L77.0242 25.9354L77.1227 26.5754L77.1719 26.92L77.1227 27.1662L77.0242 27.2154V27.4615L77.2704 27.2646V27.7569L77.5658 28.1015H78.1073L78.6981 27.9046L79.2888 26.7231L79.3873 25.4431L79.0427 25.0492C79.0427 24.9508 78.9935 24.9015 78.9442 24.8523C78.7965 24.7046 78.5996 24.5569 78.3535 24.4585L78.1565 24.2615L77.8612 24.36C77.2212 24.3108 76.4335 24.4585 75.5965 24.7046L74.9565 24.7538L74.6119 24.9015L74.0704 25.0985L73.6273 25.3446L73.4796 25.4431L72.5935 25.7385L71.7073 26.0831L71.4119 26.3292C70.7227 26.6246 70.1319 26.92 69.7873 27.1169L69.3442 27.3138L68.3104 27.6585L67.7688 27.9538L67.2273 28.4462L66.4888 28.7415L66.1935 28.9385L65.7996 29.3323L64.815 29.9231H64.7658L64.6673 30.0215L64.2242 30.3169L64.0273 30.3662L63.7812 30.6123L62.895 31.2031V31.1538L61.5165 32.1385L61.4673 32.1877L60.5319 32.9262H60.4827L60.3842 33.0246L59.5473 33.6646L58.6612 34.2062L57.8735 34.9938H57.7258L56.8396 35.8308H56.5442L56.7412 36.0277L56.3473 36.1754V36.2246H56.2488L56.1504 36.2738L55.9535 36.4215L55.2642 36.9138L54.8704 37.2585L54.9688 37.0615L55.0673 36.9631ZM91.1819 32.8277L91.2312 31.9415L90.985 31.3508L90.8373 31.0062L90.2465 30.3662L89.8527 30.12L89.6558 29.9723L89.5573 29.9231L89.4096 29.7754H89.3112C88.9665 29.6277 88.5235 29.4308 88.0312 29.2831L88.2773 29.1354L89.1635 29.0369H89.5573L89.9512 28.8892C90.8373 28.7908 91.625 28.6431 92.4127 28.5446L93.2004 28.5938L93.4465 28.4462L93.8896 28.3477L93.9881 28.2985C95.4158 28.1015 96.9419 27.9046 99.1081 27.7569C99.6004 27.7077 99.8465 27.6092 100.388 27.6092L100.979 27.56H101.717C102.505 27.56 103.883 27.56 104.967 27.8062L105.705 28.0031L106.099 28.2985L106.591 28.5446L106.739 28.7908C106.739 28.8892 106.788 28.9385 106.788 28.9877L106.443 29.8738L106.345 30.12C106.247 30.3169 106.099 30.5631 106.05 30.76V30.8585L105.951 31.0062V31.4L106.247 31.3015L106.443 31.0062C106.443 30.9569 106.493 30.9077 106.542 30.8585V30.8092L106.739 30.5138L107.182 29.7262L107.33 29.3815L107.625 29.1354V28.9877L107.428 28.6923L107.28 28.3969L107.034 28.2985L106.887 28.1508H106.788C106.493 27.9538 106.247 27.7569 105.951 27.6092L105.803 27.4123H105.607L105.41 27.2646C105.114 27.1662 104.622 27.0677 104.031 26.9692L103.834 26.92L103.44 26.8708L103.243 26.92H103.096L102.8 26.7723L102.456 26.8215H102.357L101.914 26.7723H101.57L101.274 26.8708H100.979L100.88 26.7723H100.782L100.683 26.8215L100.487 26.8708C100.191 26.8708 99.8958 26.92 99.6496 26.92C99.4527 26.9692 99.2065 26.9692 99.0096 26.9692H98.9604L98.3696 26.92L97.9758 26.9692H96.9912L96.4988 27.0185L96.2035 27.0677L95.4158 27.3138L94.6773 27.3631L94.0865 27.5108L94.0373 27.56L92.6588 27.7077C92.4619 27.56 92.3142 27.4615 92.1173 27.4123L91.9696 27.2646L91.625 27.3138C91.2804 27.2646 90.9358 27.3138 90.5912 27.3631L90.1481 27.4123L89.7542 27.4615L89.5081 27.6092L89.3604 27.6585L88.9665 27.8554L88.5235 28.1508C88.3758 28.2492 88.2281 28.3477 88.0804 28.3969L87.2435 28.4954L87.0958 28.4462L86.1604 28.5938L85.3727 28.5446L84.8312 28.6431C83.9942 28.4954 83.2065 28.4462 82.4681 28.4462L81.7296 28.2492L81.3358 28.1015L80.8435 28.1508L80.3512 28.2492L79.9573 28.3969L79.5635 28.9877L79.5142 29.3323L79.6619 29.5785L79.9573 29.7754L80.5481 29.9231L81.6804 29.8738H81.7296C82.2712 29.8738 82.8127 29.7754 83.2558 29.7262H83.8465L83.9942 29.7754L84.0435 29.7262L84.1912 29.6769C84.4865 29.6769 84.7819 29.6277 85.1265 29.5785L85.8158 29.6769C85.3727 29.9231 84.9296 30.2677 84.4373 30.5631L83.9942 30.8092L83.6004 31.0062L82.9604 31.5477L82.2712 31.7938L81.8281 32.1877L81.4835 32.5815L81.0404 32.8769L80.8927 32.9262L80.6465 33.1723L79.465 34.0585L79.4158 33.96L79.3173 34.1077L78.9235 34.3538L78.825 34.4523L78.5788 34.5015L78.2835 34.7477L77.2004 35.5846L77.0035 35.7815L76.8558 36.0277L76.1173 36.7662L75.2804 37.3569L75.1819 37.5046L74.8373 37.7508L74.2465 38.3415L74.0496 38.6369L73.705 39.4738L73.3604 40.36L73.4096 40.6554L73.5573 40.6062V41.0492C73.6065 41.3938 74.6404 41.8862 74.8373 42.0338C75.0835 42.1323 75.2804 42.1815 75.5758 42.2308C75.625 42.2308 75.7235 42.1815 75.7727 42.1815V42.2308L76.6588 42.3292L77.5942 42.3785H77.9388L78.2835 42.4769L78.4312 42.4277L78.6281 42.1815L78.7758 42.1323L78.9727 41.9846C79.6619 41.7877 80.3512 41.4923 81.1388 41.1969H81.2373L81.5327 41.1477L81.7296 41.0492L82.2712 41L82.4681 40.9508L82.8127 40.7046L83.0096 40.4585L83.3542 40.36L83.6004 40.1138H83.6496L84.0435 39.8185H84.2404V39.6708C84.2896 39.6708 84.2896 39.6708 84.3388 39.6215H84.5358L84.6342 39.5231V39.4738L85.1758 39.1292H85.3235V39.0308C86.3573 38.3908 87.3912 37.7015 88.2281 36.9631L88.3265 36.9138L88.7204 36.6185L88.9665 36.3723L89.1635 36.1262L89.6558 35.6338L90.0988 35.3385L90.4435 34.8462L90.7388 34.3538C90.7881 34.2062 90.7388 34.0585 90.7881 33.96L90.985 33.5662C91.0835 33.32 91.1327 33.0738 91.1819 32.8277ZM88.8681 34.7477H88.7696L88.6712 34.8954L88.5235 35.0431L88.425 35.24L88.2281 35.2892L88.0804 35.5354L87.785 35.88L87.4896 36.1262L87.3912 36.2738L87.2435 36.4708C86.8496 36.8154 86.4558 37.16 86.0619 37.4554L85.9635 37.5046L85.8158 37.6523L84.2896 38.6862H84.1912L83.9942 38.7354L83.1573 39.1785L82.7635 39.5723L82.1727 39.8677H82.025L81.9758 39.9662C81.2865 40.2615 80.5481 40.5569 79.8588 40.7538C78.2342 41.2954 77.8896 41.4431 76.265 41.3446C76.1665 41.3446 76.0681 41.2954 75.9696 41.2954L75.6742 41.0985H75.5758C75.3296 40.9015 75.2312 40.5569 75.1819 40.1631L75.2312 40.0154L75.2804 39.9169V39.6215L75.3788 39.3754L75.4281 39.1785V39.08C75.5758 38.6862 75.8712 38.2431 76.2158 37.8492C76.265 37.8492 76.265 37.8 76.3142 37.8L76.5604 37.4554L77.0035 36.8646L77.545 36.2246L77.5942 36.1754L78.2835 35.6831L78.5296 35.4862L79.0712 35.1415L79.6619 34.7477L80.4004 34.3538L80.6465 34.1569L80.6958 34.1077L81.6804 33.4677L82.025 33.2708L82.5173 32.9262L84.2896 31.8923L84.6342 31.5969L85.0773 31.2523C85.9635 30.6615 86.5542 30.1692 87.1942 29.7754C87.1942 29.7754 87.2435 29.8246 87.2927 29.8246L87.5881 29.9231L87.9819 30.1692L88.425 30.3169L88.7696 30.4646L89.1635 30.7108L89.5081 30.9569L89.8035 31.2523L90.0496 31.7446V31.7938L90.0004 32.4831L89.8035 32.9262V33.2215C89.6065 33.7138 89.2619 34.2062 88.8681 34.7477ZM90.2465 28.1015C90.7388 27.9046 91.3788 27.6585 91.7235 27.8554L90.2465 28.1015ZM106.679 32.04C106.778 31.8923 106.925 31.6954 107.122 31.4985H107.368L108.304 31.2031L109.141 30.9077C110.076 30.6123 111.159 30.3662 112.095 30.2185H112.193L112.39 30.0215L112.538 30.0708H112.882L112.981 30.1692L113.178 29.8738C113.818 29.8246 115.885 29.5785 116.575 29.5292H117.116L117.264 29.48C117.559 29.3815 117.904 29.3815 118.347 29.3323V29.3815C118.888 29.2338 119.43 29.1354 120.07 29.1846H120.119L120.415 29.0862L122.088 28.9877H122.138H123.713L123.91 28.8892L123.812 28.6431L123.713 28.5938C123.713 28.4954 122.482 28.3969 122.088 28.4462C121.104 28.5446 119.725 28.6923 119.184 28.6431C118.79 28.6923 118.396 28.6923 118.002 28.7415C117.559 28.7908 117.116 28.8892 116.722 28.9385C115.344 29.0369 114.113 29.1354 113.227 29.2338H112.636C111.652 29.3323 110.027 29.7754 108.304 30.2185L108.008 30.2677H107.91L108.304 29.5785L108.402 29.5292L108.55 29.4308V29.2831L108.599 29.0369L109.732 27.0185L110.421 26.2308L110.618 25.7385C111.012 25.2954 111.356 24.7538 111.652 24.1631L112.045 23.5723C114.064 21.4062 115.295 18.7477 117.165 16.4831C118.101 15.0554 118.938 14.5631 119.775 13.0862C121.202 11.2646 123.368 8.60616 124.895 6.88308L125.732 5.50462L125.83 5.45538L126.125 5.55384L125.978 5.35692L126.568 4.71692L127.75 4.42154L127.996 3.97846L128.341 3.38769L128.735 2.94461L128.784 2.79692L130.31 2.35385L130.655 1.27077L130.359 0.68L129.965 0.236923H129.621L129.178 0.384617L129.128 0.236923H128.981V0.384617L128.882 0.532307L128.636 0.778461L128.144 1.07384L128.045 1.17231L127.996 1.07384L127.75 1.22154L127.307 1.32L126.864 1.66462L126.815 1.71384H126.716L126.618 1.86154L126.421 1.96L126.322 1.86154V1.96L126.125 2.30462V2.40308L126.027 2.6L125.928 2.69846V2.89539H125.682L125.485 3.24V3.38769L125.584 3.43692L125.436 3.68308H125.19L124.944 3.97846L124.747 4.32308L124.452 4.96308L124.107 5.55384L123.418 6.39077L123.319 6.58769L123.073 6.63692L122.975 6.93231V6.98154L122.285 7.67077L121.055 9.24615L120.759 9.78769L119.578 11.1662L119.479 11.3631C118.938 12.1015 118.347 12.7908 117.904 13.5292L117.756 13.7754L117.264 14.2677L117.215 14.4154C116.722 14.9569 116.181 15.4985 115.836 16.1877C115.245 17.1231 114.458 18.0585 114.015 19.0923L113.67 19.5354L113.178 20.0769L112.981 20.2738L112.587 20.8154L111.996 21.6031L111.652 21.8L111.602 22.0462L111.652 22.1446C111.455 22.44 111.258 22.7354 111.159 23.0308L109.042 26.8215L108.648 27.3631L108.205 27.7077L108.156 28.0031L107.615 28.5446L106.728 30.4154C106.679 30.4646 106.679 30.4646 106.679 30.5138L106.335 30.5631H106.138L105.941 30.4154H105.842L105.498 30.7108L105.104 30.8585L104.71 30.9569L104.168 31.1046L102.987 31.3015L102.248 31.4492L100.279 31.8923L99.8362 32.0892C99.3438 32.0892 98.95 32.0892 98.0146 32.2862C97.9162 32.3354 97.8177 32.3354 97.7192 32.3354L97.67 32.2862H97.3746V32.2369H97.3254V32.3354L97.2269 32.3846L97.0792 32.4338L97.03 32.4831H96.9808L96.6362 32.5815L96.3408 32.7785L96.1438 32.8769L96.0946 32.9754H96.1438L95.8485 33.1723H95.7992L95.6515 33.4185L95.5531 33.6154V33.8615L95.75 34.0092C96.39 35.1908 98.4085 34.8462 99.3438 35.5846L100.033 36.3231L100.378 36.7662L100.525 36.8646L100.673 37.1108L100.821 37.2092V37.4062L101.067 37.6031L101.362 38.0462C101.412 38.1446 101.461 38.2431 101.559 38.3415L101.165 38.9815L101.018 39.1292V39.2277L100.821 39.5723H100.722L100.427 40.1631L98.4577 43.3631L98.1131 43.6585L97.8177 44.1015L97.2762 45.2338L96.1438 47.1046L94.8146 49.2708L93.9777 50.3046L93.7315 51.0431L92.4023 53.2092L92.2546 53.6523C92.1562 53.7508 92.1069 53.8985 92.0085 54.0462L91.91 54.2431L91.6638 54.5877L91.4177 55.0308L90.3838 56.8523L89.9408 57.4923L89.7931 57.8862L89.1038 59.1662L88.8085 59.7077L88.6115 59.9046L87.9715 61.1354L87.7254 61.5785L87.6762 61.7754L87.4792 62.0708V62.2185L86.6915 63.6954L86.5438 63.8431L86.15 64.68L86.0023 64.7785L85.9531 64.9754L85.8546 65.1723V65.2708C85.6577 65.7138 85.4608 66.1569 85.2146 66.6L84.7223 67.4862L84.6238 67.5846V67.7323L84.3777 68.2738L83.9346 68.6185V68.8646L83.7869 69.8492C83.2454 71.1785 82.7038 72.5569 81.9162 73.8862C81.7685 74.2308 81.5715 74.5262 81.4731 74.8708H81.4238L81.3254 75.1662V75.2646C81.1285 75.8554 80.9315 76.3969 80.8331 76.9877L80.6362 77.5785L80.3408 78.12L79.9962 78.6615L79.8485 79.0062V79.4L79.8977 79.7938L79.6515 80.2862L79.6023 80.3354L79.4546 80.3846L79.4054 80.5815L79.3069 80.6308L79.2577 80.7292L79.1592 81.0738L79.11 81.0246L79.0608 81.0738L79.1592 81.1723V81.32L79.11 81.5169V81.6646L79.0608 82.1077L79.1592 82.5508V82.8462L79.2577 82.8954V82.8462L79.3069 83.2892C79.2577 83.5354 79.1592 83.7815 79.0608 84.0277L79.2577 84.6185L79.6515 85.0615H79.8977V85.1108L79.9469 85.0615L80.0454 85.1108L80.4392 84.9631L80.4885 85.1108L80.6362 85.16V85.0123L80.7346 84.8154L80.5377 84.7169L81.9654 83.8308L83.4423 82.7969L83.8854 82.2062L85.1162 80.7292L85.6085 79.9908H85.6577L85.9038 79.6954V79.5969L85.9531 79.5477L86.1992 79.6954L86.1008 79.4985V79.4C86.1992 79.3015 86.2977 79.2031 86.3469 79.1046L87.9715 77.2338L88.1192 77.1846V77.0862L88.1685 77.0369L89.3008 75.6585L89.6946 75.3631L89.9408 75.0677L90.63 74.3785L90.9254 74.0338L91.1715 73.7385L91.5162 73.0492L92.0085 72.5077L92.1069 72.3108C93.6823 70.44 95.2085 68.52 96.6362 66.5508L97.5223 65.6646L98.1131 64.7785L98.2608 64.4831L98.6546 63.8923L98.7531 63.6954L99.0977 63.3508L99.4423 62.6615L99.8362 62.0708L99.9838 61.8738L100.378 61.48L100.673 61.1354L100.821 60.84L101.313 60.2985L101.461 60.1015L101.658 59.5108L101.707 59.0677L101.953 58.6246L102.052 58.1815L102.15 58.0338L102.199 57.7385L102.445 57.2954L102.544 57.2462L102.495 57.1477L102.79 56.5569L103.184 56.2615L103.282 56.0154L103.135 55.7692C103.332 55.3262 103.528 54.9323 103.676 54.4892L104.218 53.8L104.365 53.6523L104.415 53.5046V53.3077L104.464 52.8646L104.513 52.4708L104.808 52.2246L104.907 52.1262L104.808 52.0277L104.71 51.5354C104.808 51.24 104.858 50.9446 104.907 50.6985L104.956 50.6L105.252 49.7631L105.301 49.3692L105.35 49.0246L105.498 48.4338L105.596 47.9415V47.5969L105.547 46.8092L105.695 46.0708L105.645 45.48L105.399 44.6431L105.498 44.2985L105.301 43.8554V43.7569C105.153 43.0185 105.055 42.3292 104.808 41.64L104.858 41.5908L104.759 41.4431L104.612 41.0985L104.562 40.6062L104.464 40.2615V39.8677L104.415 39.7692L104.119 39.6708L103.972 39.5231L103.775 39.2277L103.627 39.1292C103.43 38.7846 103.184 38.44 102.938 38.0954C102.938 38.0954 102.938 38.0462 102.987 38.0462L103.282 37.7508L103.332 37.4554L103.381 37.3569C103.676 36.9138 103.922 36.4708 104.168 36.0277L104.464 35.9292L104.513 35.7815L104.612 35.5846L104.71 35.1908L106.679 32.04ZM102.052 55.8185L101.461 57.0985L101.412 57.1969L101.165 57.64V57.7877L101.067 57.8369V57.9354L100.575 58.8215C100.181 59.4123 99.8362 60.0523 99.4915 60.6431L99.2946 60.8892V60.9877L99.2454 61.0369H99.1962L99.1469 61.2338L98.9992 61.3323L98.9008 61.48V61.6277L97.9162 63.2031L97.3254 63.5969L96.5869 65.0738L95.2085 66.7969L95.1592 66.8462V66.8954L94.8638 67.2892L93.8792 68.4708L93.3869 68.8646L92.3531 70.2923L91.6146 71.08L89.99 72.9015L88.1685 74.9692L87.7254 75.5108L87.1346 76.1508L85.7069 78.12L85.2638 78.5138L85.0177 78.6615L82.2115 81.3692L81.3254 81.96L81.2762 81.8123L81.2269 81.2215L81.1285 80.9754V80.9262C81.8177 78.1692 82.1623 74.5262 83.4915 71.9169L83.7869 71.5231L84.2792 70.3908L86.1992 66.7477C86.4946 66.2062 86.7408 65.6646 87.0362 65.1723L87.4792 64.5323L87.7254 63.8431L88.5623 62.1692L89.2515 60.8892L89.4977 60.3477L89.7931 59.6585L90.1869 59.2646L90.2362 58.8215L91.27 56.8523L91.4669 56.5077V56.4092C91.6146 56.2123 91.7131 55.9662 91.8115 55.7692L92.3531 55.08L92.8946 53.7508L94.0762 51.7323L94.47 51.0431L94.6669 50.5015C94.6669 50.4523 94.7162 50.4031 94.7654 50.3538L95.0115 50.0092L95.1592 49.6646C95.6023 48.8277 96.0946 47.9908 96.5869 47.2031C97.2762 46.0708 98.2608 45.4308 98.95 44.3477L100.279 42.2308L100.427 42.0831L100.772 41.4923L101.018 41.0985L101.461 40.6554V40.3108L101.658 40.0646L101.707 40.0154L101.756 39.8677L102.199 39.1292H102.248C102.593 39.5723 102.987 39.9169 103.381 40.4092L103.578 40.8031L103.725 40.9508L103.922 41.2462L104.316 42.1815L104.365 42.3785L104.562 42.92L104.612 43.6092L104.661 44.0523L104.71 44.1015C104.759 45.2338 104.759 46.3662 104.71 47.4492L104.464 48.3354L104.365 48.8277L104.168 49.4677L104.119 50.2062L104.021 50.7477L103.824 51.5846L103.676 52.1754L103.233 53.4554V53.5538L102.938 54.2923L102.888 54.3415L102.839 54.4892L102.544 54.9815L102.199 55.4738L102.052 55.8185ZM105.005 31.8923C105.104 31.8923 105.202 31.8923 105.35 31.7938L105.596 31.8431L105.892 31.6462L105.793 31.8431L105.547 32.2862L104.119 34.4031L103.528 35.1415L103.332 35.6831L102.396 37.16V37.1108L102.199 36.9138L102.052 36.4215L101.953 36.2738L101.658 35.9785L101.362 35.8308L101.264 35.6831C101.067 35.4369 100.821 35.1908 100.427 34.8954V34.7969L100.279 34.8462V34.7969C99.4915 34.3046 100.722 34.1077 99.6885 33.7138L99.5408 33.4185L100.033 33.32L100.378 33.2215L100.87 33.0246L101.51 32.8769L101.805 32.7292L102.248 32.6308L102.79 32.3354L103.775 32.1877L105.005 31.8923ZM127.283 39.0308L127.381 38.9323L127.529 38.8338L128.12 38.6369L128.267 38.5385L128.464 38.2923C129.301 37.8 130.188 37.2092 131.123 36.5692L131.418 36.4215L131.861 36.2738L132.304 35.88L132.747 35.5354L134.274 34.6H134.421L135.061 34.2554V34.1569H135.111L135.209 34.2062L135.308 34.0585L135.603 33.9108L135.751 33.8123L135.898 33.6154L135.751 33.32L135.603 33.2708H135.455L135.357 33.4677C134.815 33.7631 134.372 34.0585 133.978 34.3046L133.732 34.4523L133.24 34.6985L132.895 34.8954L132.698 35.0923L132.354 35.24L132.108 35.4862C132.058 35.4862 132.058 35.5354 131.96 35.5354L131.714 35.6831L131.468 35.7815L131.123 36.0277H130.975L129.941 36.6185L129.744 36.7662L129.498 36.8646L128.908 37.2092L128.76 37.3569L128.218 37.7508L127.775 37.9969L127.283 38.2923L126.889 38.4892L126.594 38.5877L126.446 38.7846H126.298L125.904 38.9815L125.806 39.1292L125.757 39.1785L124.871 39.6215H124.575L124.477 39.8185L122.754 40.6554L122.311 40.7538L121.523 41.0492L120.538 41.2954L120.095 41.5415L119.504 41.8862L119.258 42.0338C118.963 42.1323 118.668 42.1815 118.421 42.28H118.274L117.24 42.5262H116.994L116.797 42.4277L116.501 42.4769L116.206 42.5754L115.861 42.5262H115.714L115.418 42.5754L115.221 42.4769C115.221 42.4277 115.172 42.3785 115.074 41.9354L115.172 41.3446V41.0492L115.467 40.0154L115.861 39.1785L115.96 38.7846L116.304 37.8985C116.354 37.8 116.403 37.7508 116.797 37.3077L117.338 36.3723L117.634 35.9292L117.978 35.4369L118.717 34.6L119.307 33.9108L119.406 33.7631L119.603 33.4185L119.948 33.1723L120.046 32.9754L120.44 32.5815L120.784 32.0892L121.227 31.6954L121.277 31.4C121.326 31.3508 121.424 31.3015 121.474 31.2031L122.163 30.5138L122.212 30.4154L122.311 30.1692L123.148 29.3815L123.443 29.2831H123.541L123.738 29.1354L123.886 28.9877L124.378 28.4462L124.723 27.9046L124.821 27.3631V27.1169L124.477 26.8708L124.083 26.8215L123.788 26.8708L123.738 26.9692L123.591 27.0677C123.541 27.0185 123.492 26.9692 123.443 26.9692C123.098 26.92 122.852 27.1169 122.655 27.3631L122.311 27.56L121.966 27.9046V28.0031H121.867L121.72 28.1015L121.375 28.3477L121.129 28.7415V28.9877L121.031 29.48L120.834 29.6277L120.637 30.0215L120.292 30.3169L119.751 31.0062L119.504 31.7446L118.569 33.32L118.126 33.7138L117.929 34.0092L117.634 34.1569L117.191 34.6L117.043 35.0923L116.895 35.24L116.747 35.5354L116.6 35.88L116.206 36.4708C116.058 36.6677 115.96 36.8154 115.861 36.9631L115.566 37.2092L115.467 37.4062L115.123 37.8L114.778 38.3908L114.68 38.7354L114.286 39.72L113.941 40.7046V40.9015C113.744 41.3938 113.744 41.8369 113.794 42.2308L113.744 42.5262L113.941 42.7231C114.188 43.1169 114.581 43.3631 115.074 43.5108L116.009 43.7077L116.551 43.56L117.388 43.6092L117.978 43.5108L118.668 43.1662L119.455 43.0185L119.751 42.92L120.194 42.7231L120.735 42.4277L121.031 42.28L121.424 42.1323L122.163 41.64L122.458 41.4923L123.197 41.0985L123.541 41L123.689 40.9015L123.738 40.8031L124.181 40.6062L124.821 40.36L124.969 40.2615L125.018 40.1631L125.264 40.0154L125.708 39.9169L126.397 39.6215L126.889 39.2277L127.283 39.0308ZM131.369 16.1877L131.271 15.9415L131.418 15.4L130.926 15.2031L130.532 14.8092L130.04 14.9569L129.695 15.3015V15.2031L129.449 15.3015H129.547L129.351 15.4985H129.301L129.006 15.8923L128.612 16.1385L128.415 16.3846L127.874 16.9262L127.775 16.9754L127.431 17.3692L126.938 17.96L126.791 18.2554L126.446 18.9938L126.544 19.3877L125.954 20.2246C125.954 20.3723 125.855 20.4708 125.855 20.52L125.658 20.6677L125.708 21.0615L126.249 20.7169V20.6185L126.594 20.2246L126.791 19.9785L127.283 19.8308L127.677 19.0923L128.169 18.9446L128.415 18.5508L128.612 18.4523L128.661 18.4031L129.055 18.1077L129.449 17.96L129.892 17.8615L130.384 17.7631V17.7138L130.532 17.5169L130.729 17.2708L131.123 16.5815L131.369 16.1877ZM139.915 40.8031L139.078 41.0492L138.142 41.5415L137.699 41.7877L137.01 42.0831L136.715 42.28L136.222 42.4277L136.075 42.5262L135.139 42.8708L134.598 43.1169L134.45 43.2154L134.007 43.3138L133.81 43.4615L133.121 43.6585H132.727L132.284 43.4123L132.136 43.3631L132.038 43.2154L131.841 43.0185L131.742 42.7231L131.792 42.0338L131.89 41.8369L132.087 41.64L132.432 40.9508L132.53 40.7046L132.579 40.1631L133.81 37.8492L134.056 37.6031L134.401 36.9631L134.647 36.4215C134.647 36.3723 134.696 36.3231 134.745 36.2738L135.287 35.3385C135.336 35.3385 135.336 35.2892 135.336 35.2892L135.927 34.4523L136.321 33.8615V33.7631L136.764 33.1231L137.01 32.9754L137.453 32.1877L137.945 31.7446L138.339 31.3508L138.438 30.9077L138.684 30.8092L139.078 30.3169L139.225 30.12L139.275 29.6277L139.373 29.2831L139.865 28.5938L140.801 27.2154H140.85L141.047 27.0677L141.244 26.8708L141.293 26.5262L141.638 26.3785V26.1815L141.785 26.1323L142.228 25.4431L142.278 25.1477L143.705 23.3262L144.247 22.6862L144.739 22.1938L145.084 21.6031L145.428 21.1108L147.447 18.1569L147.841 17.8123L148.825 16.4338L149.613 15.3508L150.253 14.7108L151.287 13.2338L151.632 12.9385L152.272 12.0523V12.0031L152.912 11.3138L153.207 10.8215L153.699 10.4277L154.832 8.75385L155.619 7.96615L155.718 7.81846L156.407 7.22769L156.752 6.68615L156.998 6.53846L158.032 6.19385L158.228 5.89846L158.967 5.40615L159.607 4.86462L160.001 3.97846L159.755 3.48615L159.558 3.19077L159.262 3.14154L159.016 3.19077V3.14154H158.868V3.28923L158.819 3.43692H158.721C158.622 3.38769 158.622 3.48615 158.524 3.53539L158.475 3.58461L158.327 3.53539L158.081 3.68308L158.032 3.58461H157.884L157.933 3.68308L157.835 3.88L157.588 4.02769L157.244 4.27385L157.047 4.47077L156.85 4.52L156.752 4.47077H156.702V4.52L156.604 4.66769L156.505 4.76616L156.161 4.96308L155.718 5.60308L154.782 6.19385L154.438 6.63692L154.388 6.83385L154.142 7.17846L153.798 7.52308L153.601 7.86769V7.67077L153.355 7.72L153.207 7.96615V8.01538L153.256 8.11385L153.453 7.96615L153.355 8.11385L153.256 8.36L153.207 8.45846L153.01 8.60616V8.65538L152.912 8.80308L152.321 9.73846L152.124 9.93538L151.73 10.5262L151.385 10.8215L150.696 11.9046L150.45 12.1015L148.776 14.5138L148.53 14.76L148.235 15.1538L148.136 15.2031L147.693 15.8431L147.595 16.0892L147.447 16.2369L146.708 17.2708V17.4185L146.512 17.6154V17.8123L146.315 18.0092L146.118 18.2554V18.4031C146.068 18.4031 146.068 18.4523 146.019 18.5015L145.822 18.6492L145.625 18.9446L145.428 19.1415L145.133 19.4862L144.887 19.9292L144.69 20.2246C144.493 20.4708 144.296 20.7169 144.148 20.9631H144.001L143.853 21.0615L143.705 21.5046L143.558 21.7015V21.7508L142.721 22.9323L142.475 23.2277L142.081 23.5723L141.785 23.9662L141.736 24.2615V24.3108L141.441 24.6062L141.342 24.8031L141.195 25L141.145 25.0492L140.948 25.3446L140.899 25.4431L140.752 25.64L140.653 25.6892L140.505 25.9846L140.259 26.1323L139.472 27.2154L139.373 27.4123L139.176 27.6585L138.684 28.3477V28.4954L138.388 28.84L138.142 29.2831L136.173 31.9908L136.075 32.2369L135.238 33.4185L134.992 33.9108L134.548 34.5508L134.401 34.7969L133.662 35.88L133.515 35.9292L133.367 36.2246L133.318 36.3723L133.121 36.52H133.022L132.678 37.3077L132.432 37.7508L132.087 38.1938L131.841 38.3415L131.545 38.8338L131.25 39.9662L130.807 40.7046L130.659 41.0985L130.61 41.2954L130.512 41.4431H130.462V41.4923H130.61C130.364 42.0338 130.315 42.5754 130.364 43.1169C130.413 43.5108 130.659 43.9538 130.856 44.2492L131.102 44.6923L131.299 44.7415L132.038 44.9877L132.235 45.0862L132.382 45.1846H132.53L132.678 45.2338L132.875 45.1846H132.924L133.121 45.0862L133.268 44.9385H133.515L133.712 44.84H133.859L134.992 44.2985L135.09 44.2H135.336L135.976 43.8554L136.025 43.9046L136.961 43.7077L137.847 43.5108L138.142 43.3631L138.536 43.4123L138.684 43.3138L138.733 43.0185L139.127 42.6246L139.324 42.5262L139.619 42.1323L140.604 41.4431L140.752 41.3446L141.096 41.0985L141.736 40.8523L141.982 40.6554L142.672 40.2123L143.115 39.9662L143.262 39.8677L143.361 39.7692L144.001 39.3754L144.296 39.2277L144.641 38.9815L145.822 38.3908C146.167 38.1938 146.462 37.6523 146.807 37.4554C147.004 37.3077 147.201 37.16 147.447 37.0615L147.792 36.8646L148.284 36.6677L148.628 36.3231C149.613 35.7323 150.647 35.1908 151.582 34.5508H151.681L151.779 34.4523L151.927 34.3538L152.124 34.3046L152.321 34.1569L152.37 33.96L152.222 33.7631L152.075 33.7138H151.927L151.779 33.9108C151.73 33.9108 151.681 33.9108 151.632 33.96C151.287 34.2062 150.942 34.4523 150.598 34.6492L150.155 34.8954L149.613 35.0923L149.268 35.3385L149.072 35.5354L148.727 35.7323L148.481 35.9785L148.382 35.9292L148.087 36.1262L147.89 36.3231L147.742 36.3723L147.545 36.52H147.299L146.265 37.1108L146.118 37.2585L145.872 37.3077L145.232 37.7508L145.133 37.8492L144.739 38.0954L144.493 38.3415L141.933 39.7692L141.884 39.8185C141.244 40.1631 140.604 40.5077 139.964 40.8031H139.915ZM150.776 36.2738L151.268 35.7815L151.613 35.2892L151.908 34.8462L152.056 34.6985L152.745 33.9108L153.434 33.2215L153.976 32.7292L154.32 32.3846L154.96 31.7938L155.207 31.4985C155.65 31.1538 156.043 30.8092 156.487 30.5138L156.683 30.4154L157.176 30.2677L157.52 29.9231L158.062 29.48L159.145 28.8892H159.243L159.342 28.7908L159.637 28.6923V28.5938C159.687 28.5938 159.687 28.5938 159.736 28.5446L159.933 28.5938L160.179 28.3969L160.327 28.2492L160.917 27.9538C161.754 27.56 163.182 26.8215 164.511 26.5262L164.708 26.5754L165.053 26.5262H165.594L165.939 26.6246L166.283 26.7723L166.53 27.0677L166.628 27.3138L166.677 27.4123L166.727 27.4615L166.48 28.2L166.382 28.3477L166.283 28.6923L166.087 28.9385L163.871 30.8092L163.231 31.3015L163.034 31.4985L162.296 31.7446L162.197 31.9415L161.557 32.1877L161.311 32.4831L160.671 32.8277L159.342 33.4677L157.914 33.96L157.816 34.1077H157.619L156.979 34.3538L156.388 34.4523H155.748L155.354 34.3538L155.01 34.2554H154.616L153.976 34.5015L153.287 35.1415L152.942 35.8308L152.843 35.9785L152.942 36.2246L153.237 36.3723H153.582L154.37 36.3231L155.699 36.0769L156.634 35.7323L157.914 35.1908L158.554 34.7477L159.982 34.0585L160.031 33.96C161.262 33.32 162.493 32.6308 163.625 31.8431L163.97 31.7446L164.216 31.5477L165.939 30.6615L166.382 30.3662L166.923 30.0215L167.416 29.5292L167.81 28.8892L168.007 28.1508V27.8554L168.105 27.7077L168.203 27.3631L168.154 27.1662V26.92L168.203 26.8708H168.154L168.203 26.7723L168.056 26.7231C168.007 26.4769 167.81 26.3292 167.563 26.1323L167.514 26.0831L167.219 25.9354H167.17L167.12 25.8369H166.973L166.825 25.7385L166.874 25.64H166.825V25.6892L166.53 25.5908L166.48 25.64L166.333 25.6892L166.234 25.64L166.087 25.6892L166.037 25.7385C165.693 25.6892 165.299 25.6892 164.905 25.6892L164.757 25.5908L164.462 25.6892H163.97L163.527 25.9354C162.985 26.0831 162.443 26.28 161.902 26.4769L161.213 26.5754L161.065 26.6246L160.72 26.8215L160.13 27.2154C160.13 27.2646 160.08 27.2646 160.031 27.2646L159.391 27.5108L158.899 27.8554L158.8 27.9538C157.619 28.6431 156.487 29.48 155.403 30.2677L155.157 30.3662L154.763 30.5138L154.517 30.76L154.419 30.9077L154.123 31.0062L153.927 31.1538L153.68 31.4492L153.483 31.6462L153.139 32.1385L152.696 32.4831L152.203 32.9262L152.105 32.9754L151.711 33.2708L151.367 33.4185L151.17 33.6646L150.628 33.9108L150.48 34.0585L150.185 34.5015L150.037 34.8462L149.742 35.0923L149.594 35.4862L149.496 35.5846L149.2 36.0769L148.807 36.9631L148.462 37.5538L148.117 38.7846V39.1292L148.167 39.2277L148.117 39.3262V40.1631L148.265 40.8523L148.511 41.4923L149.003 42.1815L150.087 42.7231L151.268 42.92L151.81 42.7231L152.105 42.8215L153.09 42.6246H153.04L153.287 42.5754L153.434 42.4277C154.123 42.3292 154.813 42.1815 155.403 41.9846H155.502L156.142 41.8369L156.339 41.6892L156.536 41.5908L157.028 41.5415L157.865 41.2954L158.456 41.1969L158.85 41.0985L160.376 40.36L161.114 39.9662C161.754 39.72 162.394 39.4738 163.034 39.1785H163.083L163.477 38.9815L164.068 38.8831L164.61 38.5385L164.708 38.6862L164.905 38.5385L167.367 37.3569L167.514 37.2092C168.105 36.9631 168.696 36.6185 169.287 36.3231L171.157 35.5354L171.847 35.0923L171.945 35.0431L172.339 34.8462L172.536 34.7969L172.585 34.6985L174.16 33.9108H174.308L174.505 33.7631L174.85 33.5662L174.899 33.5169C175.342 33.2708 175.834 33.0246 176.277 32.7292L176.474 32.6308H176.72L176.967 32.2862L178.099 31.4985L178.345 31.4L178.788 31.2523L179.034 31.1538L178.887 30.7108L178.69 30.6615L178.493 30.8092V30.8585C178.443 30.76 178.296 30.7108 178.197 30.8092C177.803 31.1046 177.459 31.3508 177.114 31.5477L176.868 31.5969L174.21 33.2215L174.16 33.32L173.57 33.6154H173.422V33.7138L172.487 34.1077L171.6 34.4031L171.305 34.5508L171.256 34.6492L170.173 35.0431C168.45 35.8308 167.76 36.2738 165.988 37.0123L165.791 37.0615L164.167 37.6523L163.723 37.7508L163.379 37.9477H163.182L160.228 39.1785H160.13L159.933 39.2769L159.539 39.5231L157.619 40.1631L156.93 40.4585L153.336 41.2462L152.597 41.3446H151.957L151.12 41.1477C149.89 40.7538 150.037 40.7538 149.742 40.4092C149.545 40.1631 149.594 39.4738 149.643 39.4246L149.693 38.1938L149.89 37.8985V37.7508C149.89 37.7015 149.89 37.6523 149.939 37.6523L150.087 37.4554L150.333 37.2092V36.9631L150.776 36.2738Z" fill="#D39E4E"/>
</svg>
